<?xml version="1.0" encoding="UTF-8"?>
<svg xmlns="http://www.w3.org/2000/svg" version="1.1" viewBox="0 0 100 100">
  <circle fill="#FF3B30" cx="50" cy="50" r="50" />
  <g fill="#fff" fill-opacity="0.85">
    <path
      d="M30.83,75.66h37.23c6.18,0,9.62-3.42,9.62-9.56v-32.15c0-6.14-3.44-9.55-9.62-9.55H30.83c-6.17,0-9.61,3.4-9.61,9.55v32.15c0,6.15,3.44,9.56,9.61,9.56ZM31.52,68.27c-1.92,0-2.9-.9-2.9-2.94v-23.34c0-2.03.99-2.93,2.9-2.93h35.83c1.91,0,2.92.89,2.92,2.93v23.34c0,2.05-1.01,2.94-2.92,2.94H31.52ZM44.49,47.49h1.55c1,0,1.34-.31,1.34-1.3v-1.55c0-.99-.34-1.3-1.34-1.3h-1.55c-.99,0-1.33.31-1.33,1.3v1.55c0,.99.34,1.3,1.33,1.3ZM52.86,47.49h1.57c.99,0,1.33-.31,1.33-1.3v-1.55c0-.99-.34-1.3-1.33-1.3h-1.57c-.98,0-1.32.31-1.32,1.3v1.55c0,.99.34,1.3,1.32,1.3ZM61.25,47.49h1.57c.98,0,1.32-.31,1.32-1.3v-1.55c0-.99-.35-1.3-1.32-1.3h-1.57c-.98,0-1.32.31-1.32,1.3v1.55c0,.99.35,1.3,1.32,1.3ZM36.11,55.73h1.57c.98,0,1.32-.31,1.32-1.28v-1.57c0-.99-.35-1.3-1.32-1.3h-1.57c-.98,0-1.34.31-1.34,1.3v1.57c0,.98.36,1.28,1.34,1.28ZM44.49,55.73h1.55c1,0,1.34-.31,1.34-1.28v-1.57c0-.99-.34-1.3-1.34-1.3h-1.55c-.99,0-1.33.31-1.33,1.3v1.57c0,.98.34,1.28,1.33,1.28ZM52.86,55.73h1.57c.99,0,1.33-.31,1.33-1.28v-1.57c0-.99-.34-1.3-1.33-1.3h-1.57c-.98,0-1.32.31-1.32,1.3v1.57c0,.98.34,1.28,1.32,1.28ZM61.25,55.73h1.57c.98,0,1.32-.31,1.32-1.28v-1.57c0-.99-.35-1.3-1.32-1.3h-1.57c-.98,0-1.32.31-1.32,1.3v1.57c0,.98.35,1.28,1.32,1.28ZM36.11,63.99h1.57c.98,0,1.32-.32,1.32-1.3v-1.57c0-.99-.35-1.3-1.32-1.3h-1.57c-.98,0-1.34.31-1.34,1.3v1.57c0,.98.36,1.3,1.34,1.3ZM44.49,63.99h1.55c1,0,1.34-.32,1.34-1.3v-1.57c0-.99-.34-1.3-1.34-1.3h-1.55c-.99,0-1.33.31-1.33,1.3v1.57c0,.98.34,1.3,1.33,1.3ZM52.86,63.99h1.57c.99,0,1.33-.32,1.33-1.3v-1.57c0-.99-.34-1.3-1.33-1.3h-1.57c-.98,0-1.32.31-1.32,1.3v1.57c0,.98.34,1.3,1.32,1.3Z" />
  </g>
</svg>