<?xml version="1.0" encoding="UTF-8"?>
<svg xmlns="http://www.w3.org/2000/svg" version="1.1" viewBox="0 0 100 100">
  <circle fill="#a2845e" cx="50" cy="50" r="50" />
  <g fill="#fff" fill-opacity="0.85">
    <path class="st1"
      d="M81.12,34.03v31.97c0,6.1-3.41,9.51-9.57,9.51H27.35c-6.14,0-9.56-3.4-9.56-9.51v-31.97c0-6.11,3.42-9.5,9.56-9.5h44.21c6.16,0,9.57,3.39,9.57,9.5ZM27.52,60.35c0,1.1.64,1.99,1.84,1.99h19.25c1.22,0,1.85-.89,1.85-1.99,0-2.48-3.49-8.76-11.47-8.76s-11.47,6.27-11.47,8.76ZM56.53,58.49c-1.11,0-1.91.84-1.91,1.91s.8,1.86,1.91,1.86h12.64c1.07,0,1.87-.8,1.87-1.86s-.8-1.91-1.87-1.91h-12.64ZM56.53,48.17c-1.11,0-1.91.82-1.91,1.86s.8,1.91,1.91,1.91h12.64c1.07,0,1.87-.84,1.87-1.91s-.8-1.86-1.87-1.86h-12.64ZM33.18,43.58c0,3.62,2.61,6.33,5.8,6.33,3.21,0,5.81-2.71,5.81-6.33,0-3.41-2.6-6.23-5.81-6.23s-5.8,2.82-5.8,6.23ZM56.53,37.81c-1.11,0-1.91.82-1.91,1.87s.8,1.91,1.91,1.91h12.64c1.07,0,1.87-.84,1.87-1.91s-.8-1.87-1.87-1.87h-12.64Z" />
  </g>
</svg>