<?xml version="1.0" encoding="UTF-8"?>
<svg xmlns="http://www.w3.org/2000/svg" version="1.1" viewBox="0 0 1012 600">
    <defs>
        <style>
            .symbol {
                fill: #fff;
                fill-opacity: .85;
            }
        </style>
    </defs>
    <g fill="#fff">
        <path
            d="M282.2,482.4c0,3.6.4,6.3,1,8.1.7,1.8,2,3.2,3.8,4.2,1.6.8,3.1,1.3,4.6,1.5s2.8.5,3.9.8,2,.8,2.7,1.4,1,1.6,1,3c0,3.2-1.8,4.8-5.4,4.8s-6.6-.4-10.8-1c-4.2-.7-8.6-1-13.4-1s-9.5.4-13.1,1c-3.6.7-6.5,1-8.7,1s-4.5-1.7-4.5-5.1.2-2.4.8-3,1.2-1,2.1-1.2c.9-.2,1.9-.4,2.9-.5s2.1-.5,3.3-1c2.2-1.2,3.6-2.6,4-4.4.5-1.7.8-4.5.8-8.5v-70.8c0-5.4-.6-9-1.9-10.8s-2.7-3-4.2-3.5-2.9-.8-4.2-.9-1.9-1.1-1.9-3.1,1.4-4,4.1-5.4,6.5-3.5,11.5-6.3c3-1.8,5.5-3.6,7.6-5.4,2.1-1.8,3.8-3.4,5.2-4.8,1.4-1.4,2.5-2.5,3.4-3.5.9-.9,1.7-1.4,2.5-1.4,2,0,3,2.1,3,6.3v109.5ZM280.4,320.4c2.6,3.4,3.9,7.2,3.9,11.4s-1.3,8-3.9,11.4-5.7,5.1-9.3,5.1-6.7-1.7-9.3-5.1c-2.6-3.4-3.9-7.2-3.9-11.4s1.3-8,3.9-11.4,5.7-5.1,9.3-5.1,6.7,1.7,9.3,5.1Z" />
        <path
            d="M356.9,317.1c1,0,1.9.1,2.5.5.7.3,1.2,1,1.6,2.2l39.9,121.2c.8,2.4,1.5,3.6,2.1,3.6s1.6-1.1,2.4-3.3l39.3-119.1c.4-1.6,1-2.9,1.6-3.8.7-.9,1.9-1.4,3.5-1.4h38.7c2.8,0,4.2,1.3,4.2,3.9s-.5,2.6-1.4,3.1-2,.9-3.5,1c-1.4.2-3,.4-4.6.5-1.7.1-3.5.5-5.2,1.3-2.2,1-3.5,2.2-4,3.7-.5,1.5-.8,4.2-.8,8.2v7.1l3.3,130.5c.2,5.4.5,9.2,1,11.6.5,2.4,2.4,4.3,5.5,5.7,1.8.8,3.6,1.2,5.4,1.3s3.4.2,4.6.3c1.3.1,2.4.5,3.1,1,.8.6,1.2,1.8,1.2,3.6s-.5,2.2-1.6,3.1-2.6,1.4-4.6,1.4c-3.2,0-7-.4-11.5-1-4.5-.7-9.8-1-15.8-1s-12.4.4-17.2,1c-4.9.7-8.8,1-11.5,1-4,0-6-1.6-6-4.8s1.5-4.5,4.5-4.5,6.8-.3,8.9-.9c2.1-.6,3.7-1.6,4.8-3.1,1.1-1.5,1.8-3.4,2-5.8s.3-5.4.3-8.9v-6.9l-2.1-110.3c0-2.2-.5-3.3-1.5-3.3s-1.2,1-1.8,3l-44.1,135c-1,3-2.6,4.5-4.8,4.5s-4.2-1.2-4.8-3.6l-44.7-135.6c-1-2.6-1.7-3.9-2.1-3.9-1,0-1.6,1.9-1.8,5.7l-5.1,91.2c-.2,3.4-.4,6.5-.5,9.2-.1,2.8-.1,5.3-.1,7.5,0,9.3.8,16.1,2.4,20.4,1.6,4.3,5.3,6.4,11.1,6.4s1.2,0,1.8-.1c.6-.1,1.3-.1,2.1-.1,3.8,0,5.7,1.5,5.7,4.5s-2.5,4.8-7.5,4.8-5-.2-8.5-.6-7.5-.6-12.1-.6-7.5.2-10.6.6-5.8.6-8,.6c-4.8,0-7.2-1.6-7.2-4.8s1.4-4.5,4.2-4.5,2.2,0,3.1.1,1.6.1,2.2.1c2.6,0,4.7-.8,6.3-2.5,1.6-1.7,2.8-4.4,3.6-8.2.8-3.8,1.4-8.7,1.8-14.8s.8-13.5,1.2-22.5l5.1-101.9c0-.4,0-1.1.1-2.1s.1-2.3.1-3.9c0-4.6-.4-7.7-1.2-9.5-.8-1.8-2.6-3.2-5.4-4.2-1.8-.6-3.5-1-5.1-1-1.6-.1-3-.2-4.2-.3-1.2-.1-2.1-.4-2.9-.9s-1-1.5-1-3.1c0-2.6,1.4-3.9,4.2-3.9h39.3Z" />
        <path
            d="M518.7,370.9c4.7-12.1,11.2-22.6,19.3-31.6,8.2-9,17.8-16,28.7-21.1s22.7-7.6,35.2-7.6,10.6.4,15.6,1.2,9.5,1.8,13.5,3,7.3,2.4,9.9,3.7c2.6,1.3,4.4,2.5,5.4,3.5s1.9,4.1,2.7,9.5c.8,5.3,1.2,12.5,1.2,21.5s-.8,5.4-2.4,5.4-2.8-1-4.3-3.1-3.3-5-5.5-8.9c-5.4-9-11-15.8-16.8-20.4s-12.6-6.9-20.4-6.9-15.8,2.2-22.8,6.6c-7,4.4-13.2,10.6-18.5,18.7s-9.5,17.9-12.5,29.4-4.5,24.2-4.5,38.2,1.5,24.9,4.5,35.8,7,20.3,12.2,28.3c5.1,8,11,14.2,17.7,18.6s13.8,6.6,21.2,6.6,17.2-2.5,23.5-7.6,11.8-12.9,16.3-23.2c2.4-5.4,4.3-9.6,5.7-12.6s3-4.5,4.8-4.5,3.3,2.1,3.3,6.3-.2,4-.5,8.2-.5,10-.5,17.2-1.2,6.6-3.8,9.8-6,5.9-10.7,8.2c-4.6,2.4-10,4.3-16.3,5.7-6.3,1.4-13.2,2.1-20.8,2.1-12.6,0-24.2-2.6-35-7.8-10.7-5.2-20-12.3-27.8-21.3s-13.9-19.6-18.3-31.8c-4.4-12.2-6.6-25.4-6.6-39.6s2.4-27,7.1-39.1h0Z" />
        <path
            d="M723.1,416.4c-1.2-.4-1.9-.6-2.1-.6-1.2,0-2,.5-2.2,1.4s-.5,2.4-.5,4.4v55.9c0,5.2.3,8.9.9,11,.6,2.2,2.3,4,5.1,5.4,1.8.8,3.6,1.2,5.4,1.4,1.8.1,3.3.2,4.7.5,1.3.2,2.3.6,3.2,1.2.8.6,1.2,1.8,1.2,3.6s-.5,2.2-1.7,3.1c-1.1.9-2.7,1.4-4.7,1.4s-5.3-.4-10-1c-4.7-.7-10.8-1-18.5-1s-12.8.4-17.2,1c-4.5.7-7.8,1-10,1-4,0-6-1.6-6-4.8s.3-2.4,1-3,1.5-1,2.5-1.2,2.2-.3,3.6-.3,2.8-.2,4.2-.6c4.4-1.2,7-3.2,7.8-6.1.8-2.9,1.2-7.7,1.2-14.5v-135.1c0-4.4-.3-7.5-1-9.3-.7-1.8-2.5-3.2-5.2-4.2-1.8-.6-3.5-1-5.2-1-1.7-.1-3.2-.2-4.3-.5-1.2-.2-2.2-.5-2.8-1-.7-.5-1-1.5-1-3.1,0-2.8,1.9-4.2,5.7-4.2s3.2.1,7,.5c3.9.3,9.5.5,16.7.5h4.8c3.4,0,7.6-.1,12.6-.3,5-.2,10.8-.3,17.4-.3,34.8,0,52.2,18.3,52.2,54.9s-1.1,14.6-3.3,21-5.2,12-9,16.6c-3.8,4.7-8.2,8.4-13,11.1-4.9,2.7-10.2,4-15.8,4s-5.7-.5-8.7-1.5-6.3-2.3-9.9-3.9l-4.8-2.1h0ZM723,407.2c3.3,2.1,6.8,3.1,10.7,3.1,6.8,0,12.8-3.6,18-11,5.2-7.3,7.8-17.2,7.8-29.9s-.8-13-2.2-18.5-3.5-10.2-6-14.1-5.4-7-8.7-9.1c-3.3-2.2-6.8-3.3-10.3-3.3-6.2,0-10.1,1.1-11.7,3.5-1.6,2.3-2.4,6-2.4,11.2v58.2c0,4.4,1.7,7.6,5,9.8Z" />
    </g>
    <g>
        <circle fill="#28d74b" cx="158" cy="242" r="50" />
        <g class="symbol">
            <path
                d="M138.2,269.4c3,0,9.8-2.9,14.8-6.4.6-.4,1-.5,1.5-.5h.7c17.6,0,32-8.8,32-24s-13.1-24-29.6-24-29.6,10.7-29.6,24c0,7.9,4.5,15.3,12.9,19.9.6.3.8.7.5,1.3-1.6,2.6-3.8,5.2-4.8,6.5-1.4,1.7-.6,3.2,1.6,3.2Z" />
        </g>
    </g>
    <g>
        <circle fill="#ff453a" cx="256.5" cy="159.6" r="50" />
        <g class="symbol">
            <path
                d="M237.5,185.2h37.2c6.2,0,9.6-3.4,9.6-9.6v-32.2c0-6.1-3.4-9.6-9.6-9.6h-37.2c-6.2,0-9.6,3.4-9.6,9.6v32.2c0,6.1,3.4,9.6,9.6,9.6h0ZM238.1,177.9c-1.9,0-2.9-.9-2.9-2.9v-23.3c0-2,1-2.9,2.9-2.9h35.8c1.9,0,2.9.9,2.9,2.9v23.3c0,2.1-1,2.9-2.9,2.9h-35.8ZM251.1,157.1h1.6c1,0,1.3-.3,1.3-1.3v-1.6c0-1-.3-1.3-1.3-1.3h-1.6c-1,0-1.3.3-1.3,1.3v1.6c0,1,.3,1.3,1.3,1.3ZM259.5,157.1h1.6c1,0,1.3-.3,1.3-1.3v-1.6c0-1-.3-1.3-1.3-1.3h-1.6c-1,0-1.3.3-1.3,1.3v1.6c0,1,.3,1.3,1.3,1.3ZM267.9,157.1h1.6c1,0,1.3-.3,1.3-1.3v-1.6c0-1-.4-1.3-1.3-1.3h-1.6c-1,0-1.3.3-1.3,1.3v1.6c0,1,.4,1.3,1.3,1.3ZM242.7,165.3h1.6c1,0,1.3-.3,1.3-1.3v-1.6c0-1-.4-1.3-1.3-1.3h-1.6c-1,0-1.3.3-1.3,1.3v1.6c0,1,.4,1.3,1.3,1.3ZM251.1,165.3h1.6c1,0,1.3-.3,1.3-1.3v-1.6c0-1-.3-1.3-1.3-1.3h-1.6c-1,0-1.3.3-1.3,1.3v1.6c0,1,.3,1.3,1.3,1.3ZM259.5,165.3h1.6c1,0,1.3-.3,1.3-1.3v-1.6c0-1-.3-1.3-1.3-1.3h-1.6c-1,0-1.3.3-1.3,1.3v1.6c0,1,.3,1.3,1.3,1.3ZM267.9,165.3h1.6c1,0,1.3-.3,1.3-1.3v-1.6c0-1-.4-1.3-1.3-1.3h-1.6c-1,0-1.3.3-1.3,1.3v1.6c0,1,.4,1.3,1.3,1.3ZM242.7,173.6h1.6c1,0,1.3-.3,1.3-1.3v-1.6c0-1-.4-1.3-1.3-1.3h-1.6c-1,0-1.3.3-1.3,1.3v1.6c0,1,.4,1.3,1.3,1.3ZM251.1,173.6h1.6c1,0,1.3-.3,1.3-1.3v-1.6c0-1-.3-1.3-1.3-1.3h-1.6c-1,0-1.3.3-1.3,1.3v1.6c0,1,.3,1.3,1.3,1.3ZM259.5,173.6h1.6c1,0,1.3-.3,1.3-1.3v-1.6c0-1-.3-1.3-1.3-1.3h-1.6c-1,0-1.3.3-1.3,1.3v1.6c0,1,.3,1.3,1.3,1.3Z" />
        </g>
    </g>
    <g>
        <circle fill="#ac8e68" cx="382.8" cy="124.9" r="50" />
        <g class="symbol">
            <path
                d="M408.1,112v25.8c0,4.9-2.8,7.7-7.7,7.7h-35.7c-5,0-7.7-2.8-7.7-7.7v-25.8c0-4.9,2.8-7.7,7.7-7.7h35.7c5,0,7.7,2.7,7.7,7.7ZM364.8,133.2c0,.9.5,1.6,1.5,1.6h15.6c1,0,1.5-.7,1.5-1.6c0-2-2.8-7.1-9.3-7.1s-9.3,5.1-9.3,7.1h0ZM388.2,131.7c-.9,0-1.5.7-1.5,1.5s.6,1.5,1.5,1.5h10.2c.9,0,1.5-.7,1.5-1.5s-.6-1.5-1.5-1.5h-10.2ZM388.2,123.4c-.9,0-1.5.7-1.5,1.5s.6,1.5,1.5,1.5h10.2c.9,0,1.5-.7,1.5-1.5s-.6-1.5-1.5-1.5h-10.2ZM369.4,119.7c0,2.9,2.1,5.1,4.7,5.1s4.7-2.2,4.7-5.1-2.1-5-4.7-5-4.7,2.3-4.7,5ZM388.2,115c-.9,0-1.5.7-1.5,1.5s.6,1.5,1.5,1.5h10.2c.9,0,1.5-.7,1.5-1.5s-.6-1.5-1.5-1.5h-10.2Z" />
        </g>
    </g>
    <g>
        <circle fill="#bf5af2" cx="511.4" cy="107.9" r="50" />
        <g class="symbol">
            <path
                d="M504.41,115.45v.9c-7.64.9-12.69,3.03-12.69,5.95s8.43,6.4,19.88,6.4,19.88-2.58,19.88-6.4-5.06-5.17-12.58-5.95v-5.62c11.57,1.24,19.1,5.62,19.1,11.68s-10.78,12.13-26.4,12.13-26.4-4.83-26.4-12.13,7.53-10.45,19.1-11.68v4.72h.11Z" />
            <path
                d="M521.71,91.07c0,4.49-2.92,8.43-7.08,9.66v14.27c0,4.94-1.8,9.1-3.03,9.1s-3.03-4.16-3.03-9.1v-14.27c-4.16-1.24-7.08-5.17-7.08-9.66s4.49-10.11,10.11-10.11,10.11,4.49,10.11,10.11ZM505.42,88.15c0,1.91,1.57,3.48,3.48,3.48s3.48-1.57,3.48-3.48-1.57-3.48-3.48-3.48-3.48,1.57-3.48,3.48h0Z" />
        </g>
    </g>
    <g>
        <circle fill="#0a84ff" cx="640.7" cy="125.1" r="50" />
        <g class="symbol">
            <path
                d="M620.3,127.9h15.6c.2,0,.3.1.3.3v15.6c0,4.8,6.4,5.9,8.4,1.3l16.2-35.4c2.3-5-1.5-8.6-6.4-6.3l-35.5,16.2c-4.4,2-3.5,8.3,1.4,8.3h0Z" />
        </g>
    </g>
    <g>
        <circle fill="#ff9f0a" cx="767.4" cy="160.4" r="50" />
        <g class="symbol">
            <path d="M758.1,179.3h31.2c1.6,0,2.9-1.4,2.9-3s-1.2-3-2.9-3h-31.2c-1.6,0-2.9,1.4-2.9,3s1.3,3,2.9,3Z" />
            <path d="M746,180.4c2.2,0,4.1-1.8,4.1-4.1s-1.8-4.1-4.1-4.1-4,1.8-4,4.1,1.8,4.1,4,4.1Z" />
            <path d="M758.1,164.6h31.2c1.6,0,2.9-1.4,2.9-3s-1.2-3-2.9-3h-31.2c-1.6,0-2.9,1.4-2.9,3s1.3,3,2.9,3Z" />
            <path d="M746,165.7c2.2,0,4.1-1.8,4.1-4.1s-1.8-4.1-4.1-4.1-4,1.8-4,4.1,1.8,4.1,4,4.1Z" />
            <path d="M758.1,149.9h31.2c1.6,0,2.9-1.4,2.9-3s-1.2-3-2.9-3h-31.2c-1.6,0-2.9,1.4-2.9,3s1.3,3,2.9,3Z" />
            <path d="M746,151c2.2,0,4.1-1.8,4.1-4.1s-1.8-4.1-4.1-4.1-4,1.8-4,4.1,1.8,4.1,4,4.1Z" />
        </g>
    </g>
    <g>
        <circle fill="#5ac8f5" cx="866" cy="242" r="50" />
        <g class="symbol">
            <path
                d="M890.6,249.3l2.8,2.8c.9.9.9,2.3,0,3.2s-2.4.9-3.2,0l-2.8-2.8c-.9-.9-.9-2.3,0-3.2s2.3-.9,3.2,0ZM888.2,239.3c0,3.8-1.9,7.1-4.9,9-1.1-6.3-6.2-10.9-12.8-11.7-.7-1.1-1.5-2-2.5-2.9,1.9-3.1,5.3-5.3,9.3-5.3,6,0,10.8,4.9,10.8,10.8h.1ZM900,239.3c0,1.2-1,2.2-2.3,2.2h-3.9c-1.2,0-2.3-1-2.3-2.2s1.1-2.3,2.3-2.3h3.9c1.2,0,2.3,1,2.3,2.3ZM893.4,223.3c.9.9.9,2.3,0,3.2l-2.8,2.8c-.9.9-2.3.9-3.2,0s-.9-2.4,0-3.2l2.8-2.8c.9-.9,2.3-.9,3.2,0ZM864.6,223.3l2.8,2.8c.9.9.9,2.3,0,3.2s-2.3.9-3.2,0l-2.8-2.8c-.9-.9-.9-2.3,0-3.2s2.4-.9,3.2,0ZM879.6,218.9v3.9c0,1.2-1,2.3-2.3,2.3s-2.2-1.1-2.2-2.3v-3.9c0-1.2,1-2.3,2.2-2.3s2.3,1,2.3,2.3Z" />
            <path
                d="M844.6,262h24.8c6.2,0,10.8-4.7,10.8-11s-4.9-11.1-11.6-11.1c-2.2-4.2-6.4-7.6-12.8-7.6s-13.5,5.6-14.2,12.9c-3.8,1-6.3,4.2-6.3,8.3s3.7,8.6,9.2,8.6h0Z" />
        </g>
    </g>
</svg>