<?xml version="1.0" encoding="UTF-8"?>
<svg xmlns="http://www.w3.org/2000/svg" version="1.1" viewBox="0 0 100 100">
  <circle fill="#af52de" cx="50" cy="50" r="50" />
  <g fill="#fff" fill-opacity="0.85">
    <path
      d="M42.49,57.93v.94c-8.01.94-13.32,3.18-13.32,6.25s8.84,6.72,20.86,6.72,20.86-2.71,20.86-6.72-5.3-5.42-13.2-6.25v-5.89c12.14,1.3,20.04,5.89,20.04,12.26s-11.31,12.73-27.7,12.73-27.7-5.07-27.7-12.73,7.9-10.96,20.04-12.26v4.95h.12Z" />
    <path
      d="M60.64,32.35c0,4.71-3.06,8.84-7.43,10.14v14.97c0,5.19-1.89,9.55-3.18,9.55s-3.18-4.36-3.18-9.55v-14.97c-4.36-1.3-7.43-5.42-7.43-10.14s4.71-10.61,10.61-10.61,10.61,4.71,10.61,10.61ZM43.55,29.29c0,2,1.65,3.65,3.65,3.65s3.65-1.65,3.65-3.65-1.65-3.65-3.65-3.65-3.65,1.65-3.65,3.65h0Z" />
  </g>
</svg>