<?xml version="1.0" encoding="UTF-8"?>
<svg xmlns="http://www.w3.org/2000/svg" version="1.1" viewBox="0 0 100 100">
  <circle fill="#ff9500" cx="50" cy="50" r="50" />
  <g fill="#fff" fill-opacity=".85">
    <path
      d="M38.83,72.2h36.98c1.91,0,3.42-1.64,3.42-3.53s-1.48-3.51-3.42-3.51h-36.98c-1.92,0-3.41,1.62-3.41,3.51s1.51,3.53,3.41,3.53Z" />
    <path d="M24.44,73.49c2.65,0,4.82-2.17,4.82-4.82s-2.17-4.8-4.82-4.8-4.8,2.15-4.8,4.8,2.17,4.82,4.8,4.82Z" />
    <path
      d="M38.83,54.74h36.98c1.91,0,3.42-1.64,3.42-3.51s-1.48-3.52-3.42-3.52h-36.98c-1.92,0-3.41,1.62-3.41,3.52s1.51,3.51,3.41,3.51Z" />
    <path d="M24.44,56.04c2.65,0,4.82-2.17,4.82-4.82s-2.17-4.8-4.82-4.8-4.8,2.15-4.8,4.8,2.17,4.82,4.8,4.82Z" />
    <path
      d="M38.83,37.29h36.98c1.91,0,3.42-1.64,3.42-3.52s-1.48-3.51-3.42-3.51h-36.98c-1.92,0-3.41,1.62-3.41,3.51s1.51,3.52,3.41,3.52Z" />
    <path d="M24.44,38.57c2.65,0,4.82-2.15,4.82-4.8s-2.17-4.8-4.82-4.8-4.8,2.15-4.8,4.8,2.17,4.8,4.8,4.8Z" />
  </g>
</svg>