<?xml version="1.0" encoding="UTF-8"?>
<svg xmlns="http://www.w3.org/2000/svg" version="1.1" viewBox="0 0 100 100">
  <circle fill="#55bef0" cx="50" cy="50" r="50" />
  <g fill="#fff" fill-opacity=".85">
    <path
      d="M74.42,57.32l2.79,2.8c.88.88.9,2.32.02,3.18-.87.87-2.36.91-3.21.02l-2.8-2.82c-.87-.91-.9-2.34-.02-3.21.87-.87,2.32-.86,3.21.02ZM72.01,47.29c0,3.77-1.94,7.1-4.87,9.04-1.12-6.3-6.15-10.91-12.76-11.67-.7-1.05-1.51-2.04-2.45-2.94,1.89-3.15,5.34-5.26,9.26-5.26,5.95,0,10.82,4.87,10.82,10.84ZM83.77,47.3c0,1.24-1.03,2.24-2.27,2.24h-3.94c-1.23,0-2.29-.99-2.29-2.24s1.06-2.27,2.29-2.27h3.94c1.24,0,2.27,1.03,2.27,2.27ZM77.2,31.29c.87.87.88,2.34-.01,3.21l-2.8,2.79c-.88.87-2.35.89-3.23.03-.87-.87-.87-2.35.03-3.22l2.81-2.79c.89-.89,2.33-.89,3.21-.03ZM48.37,31.28l2.78,2.82c.86.89.88,2.34.02,3.21-.87.87-2.32.86-3.22-.04l-2.78-2.81c-.86-.86-.89-2.31-.02-3.19.87-.87,2.37-.88,3.22,0ZM63.43,26.92v3.95c0,1.24-1.03,2.28-2.27,2.28s-2.25-1.05-2.25-2.28v-3.95c0-1.24,1.03-2.27,2.25-2.27s2.27,1.04,2.27,2.27Z" />
    <path
      d="M28.42,70.01h24.81c6.15,0,10.81-4.74,10.81-10.97s-4.91-11.15-11.61-11.15c-2.24-4.2-6.41-7.65-12.77-7.65-7.41,0-13.54,5.56-14.15,12.88-3.78,1.03-6.28,4.25-6.28,8.31,0,5.07,3.69,8.59,9.19,8.59Z" />
  </g>
</svg>